<?xml version="1.0" standalone="no"?>
<!DOCTYPE svg PUBLIC "-//W3C//DTD SVG 20010904//EN"
 "http://www.w3.org/TR/2001/REC-SVG-20010904/DTD/svg10.dtd">
<svg version="1.0" xmlns="http://www.w3.org/2000/svg"
 width="512.000000pt" height="512.000000pt" viewBox="0 0 512.000000 512.000000"
 preserveAspectRatio="xMidYMid meet">

<g transform="translate(0.000000,512.000000) scale(0.100000,-0.100000)"
fill="#000000" stroke="none">
<path d="M1705 5106 c-83 -20 -146 -56 -211 -120 -98 -98 -134 -198 -134 -371
l0 -95 -620 0 c-602 0 -622 -1 -660 -20 -26 -14 -47 -34 -61 -62 -20 -39 -21
-53 -16 -198 6 -186 28 -282 92 -418 72 -152 183 -285 322 -385 75 -55 226
-123 329 -149 l89 -23 1375 0 1375 0 89 23 c160 41 313 123 431 233 93 87 158
176 216 294 68 140 89 235 96 425 5 145 4 159 -16 198 -14 28 -35 48 -61 62
-38 19 -58 20 -660 20 l-620 0 0 95 c0 173 -36 272 -134 371 -66 66 -144 108
-227 124 -78 15 -931 11 -994 -4z m971 -302 c62 -30 79 -65 82 -181 l4 -103
-552 0 -552 0 4 103 c2 86 6 107 25 133 46 64 43 64 521 64 380 0 438 -2 468
-16z"/>
<path d="M0 2315 c0 -1056 1 -1097 19 -1133 11 -22 35 -46 59 -60 l40 -22
1229 0 1230 0 7 106 c17 257 96 490 244 714 74 111 261 298 373 372 93 63 256
143 358 178 233 78 536 90 773 30 42 -11 79 -20 82 -20 3 0 6 209 6 465 l0
466 -68 -69 c-171 -173 -391 -295 -642 -354 -70 -16 -133 -21 -352 -25 l-266
-5 -7 -82 c-9 -115 -29 -188 -77 -286 -78 -160 -245 -295 -428 -347 -57 -16
-104 -18 -370 -18 -266 0 -313 2 -370 18 -183 52 -350 187 -428 347 -48 98
-68 171 -77 286 l-7 82 -266 5 c-193 4 -286 10 -337 21 -257 59 -477 179 -654
355 l-71 72 0 -1096z"/>
<path d="M1635 2888 c16 -166 87 -268 232 -336 l58 -27 285 0 285 0 58 27
c145 68 216 170 232 336 l7 72 -582 0 -582 0 7 -72z"/>
<path d="M3820 2225 c-351 -56 -660 -285 -824 -612 -235 -470 -101 -1051 318
-1375 427 -330 1012 -313 1425 41 192 166 333 430 371 696 53 376 -108 776
-411 1018 -245 196 -567 281 -879 232z m262 -562 c16 -10 39 -34 51 -53 21
-34 22 -45 22 -290 0 -238 -1 -257 -20 -290 -41 -69 -64 -75 -295 -75 -193 0
-207 1 -240 22 -48 30 -70 71 -70 132 0 46 4 56 39 94 l40 42 123 5 123 5 5
172 5 172 30 31 c17 18 39 36 50 40 35 15 106 11 137 -7z"/>
</g>
</svg>
