<?xml version="1.0" encoding="UTF-8"?>
<svg version="1.1" xmlns="http://www.w3.org/2000/svg" width="512" height="512">
<path d="M0 0 C6.14943341 4.47334475 9.82806706 9.98897073 11.12109375 17.54296875 C11.15149519 19.0968983 11.15889866 20.65137149 11.14892578 22.20556641 C11.14490753 23.01740387 11.14088928 23.82924133 11.13674927 24.66567993 C11.12899979 25.5949379 11.12899979 25.5949379 11.12109375 26.54296875 C12.43534836 26.532976 12.43534836 26.532976 13.77615356 26.52278137 C22.04472807 26.46259915 30.3132287 26.4169582 38.58197212 26.38753223 C42.83273814 26.37189531 47.08332275 26.3506933 51.33398438 26.31665039 C55.43831026 26.28398623 59.54246194 26.26610089 63.64690781 26.25833702 C65.21056738 26.25280615 66.77421773 26.24200563 68.33780289 26.22577858 C70.53286377 26.20390989 72.72721049 26.20100567 74.92236328 26.20239258 C76.17034698 26.19573074 77.41833069 26.18906891 78.70413208 26.1822052 C82.49497111 26.5824428 84.90877219 27.51220179 88.12109375 29.54296875 C88.99609375 32.23046875 88.99609375 32.23046875 89.12109375 34.54296875 C92.06165989 34.50999604 94.99457338 34.44289956 97.93359375 34.35546875 C99.18366211 34.34676758 99.18366211 34.34676758 100.45898438 34.33789062 C102.78220304 34.25391887 104.86979546 34.12769924 107.12109375 33.54296875 C109.01863317 31.20034928 109.01863317 31.20034928 110.12109375 28.54296875 C113.05050638 26.66011869 115.34887478 26.29220599 118.79350281 26.28900146 C120.19581902 26.28054199 120.19581902 26.28054199 121.62646484 26.27191162 C123.15460815 26.27798431 123.15460815 26.27798431 124.71362305 26.28417969 C126.33141411 26.27892273 126.33141411 26.27892273 127.98188782 26.27355957 C131.55309458 26.26474624 135.12410366 26.27059219 138.6953125 26.27734375 C141.17910297 26.2759965 143.66289318 26.27405546 146.14668274 26.27154541 C152.02553048 26.26821614 157.90430658 26.27522166 163.78314382 26.28584695 C169.78220389 26.29545866 175.78114035 26.2858786 181.7802 26.27508163 C186.91300156 26.26783748 192.04576515 26.27016322 197.17856789 26.27533722 C199.6356591 26.27666819 202.09275379 26.27504543 204.54984093 26.27037811 C207.99384996 26.26527427 211.4376018 26.27307874 214.8815918 26.28417969 C215.89023285 26.28013123 216.8988739 26.27608276 217.93807983 26.27191162 C227.9369816 26.33133384 235.69828522 27.49045906 243.12109375 34.54296875 C248.22874098 40.8603219 249.38057834 47.23713749 249.31640625 55.2265625 C249.31216141 56.27711571 249.31216141 56.27711571 249.30783081 57.34889221 C249.2967426 59.55960045 249.27166078 61.76988546 249.24609375 63.98046875 C249.23604921 65.49022847 249.22692595 66.99999463 249.21875 68.50976562 C249.19684089 72.18763472 249.16239133 75.86526035 249.12109375 79.54296875 C250.55775391 79.51154785 250.55775391 79.51154785 252.0234375 79.47949219 C255.60905751 79.40657396 259.19461328 79.36098317 262.78076172 79.32324219 C264.32677262 79.30324372 265.87270902 79.27603544 267.41845703 79.24121094 C277.49464227 79.02004225 284.79004859 79.06004441 292.87109375 85.85546875 C298.24204461 92.27077117 300.24369328 97.76125519 300.25252151 106.08517742 C300.25457415 106.74387379 300.25662678 107.40257017 300.25874162 108.08122703 C300.26441547 110.29795972 300.26295389 112.51463034 300.26153564 114.73136902 C300.26411906 116.33295508 300.26713216 117.93454049 300.27053905 119.536125 C300.27861509 123.94492753 300.28039895 128.35371377 300.28113651 132.76252282 C300.28298602 137.51454806 300.29053286 142.26656485 300.29727173 147.01858521 C300.31086003 157.41324807 300.31688059 167.80790708 300.32128239 178.20257735 C300.32404406 184.6919963 300.32828128 191.18141375 300.33278656 197.67083168 C300.34498004 215.63491694 300.35527909 233.59900101 300.35866165 251.56309032 C300.35888122 252.71308656 300.35910078 253.86308279 300.359327 255.0479274 C300.35954528 256.20069063 300.35976356 257.35345387 300.35998845 258.54114932 C300.36043192 260.87712363 300.36087848 263.21309795 300.36132812 265.54907227 C300.36154955 266.70779861 300.36177098 267.86652496 300.36199912 269.06036422 C300.36594717 287.83607386 300.38340104 306.61174469 300.40668765 325.38743933 C300.43039768 344.65997247 300.44286335 363.93248612 300.44402957 383.20503408 C300.44494654 394.02752598 300.45070446 404.84996732 300.46884918 415.6724453 C300.48424548 424.8881681 300.48937341 434.10382471 300.48111108 443.31955793 C300.47720288 448.02139425 300.47814251 452.72309728 300.49216843 457.42491722 C300.50489703 461.73124067 300.50371897 466.03733051 300.49157771 470.3436536 C300.48961891 471.89954074 300.49270763 473.45544437 300.50142208 475.01130833 C300.55127465 484.51547602 300.3184141 492.65294939 294.99609375 500.79296875 C287.64016083 507.8290785 280.96690433 509.2790593 270.98268127 509.18461609 C269.78556627 509.19312161 268.58845126 509.20162713 267.35506004 509.21039039 C264.05354224 509.2287441 260.75344523 509.2248659 257.45199764 509.21125114 C253.8833654 509.20196333 250.31487049 509.22150975 246.74627686 509.23722839 C239.76366784 509.26327102 232.78131669 509.26224051 225.79867763 509.25119021 C220.12151252 509.2426199 214.44442182 509.24347192 208.76725578 509.2509861 C207.55364448 509.25256843 207.55364448 509.25256843 206.31551577 509.25418273 C204.67170587 509.25635373 203.02789598 509.25854051 201.38408612 509.26074288 C185.98147791 509.28015803 170.57901415 509.26818901 155.17641776 509.24595693 C141.97224528 509.22770874 128.76835246 509.23860879 115.56420898 509.27026367 C100.21696303 509.30705442 84.86989168 509.32403807 69.52260154 509.3108514 C67.88465022 509.30951035 66.24669886 509.30820137 64.60874748 509.30692482 C63.80292518 509.30629415 62.99710289 509.30566349 62.16686173 509.30501371 C56.4997586 509.30199087 50.83278758 509.31322725 45.16571236 509.3301754 C38.25458325 509.35053336 31.34384862 509.34958078 24.43273992 509.321543 C20.9092619 509.30780165 17.38647178 509.30351699 13.86301994 509.32549286 C10.03714808 509.34903899 6.21235199 509.32576403 2.38648987 509.29814148 C1.28170951 509.31220793 0.17692915 509.32627438 -0.9613294 509.34076709 C-8.60950607 509.22970332 -13.85532047 507.30961494 -19.87890625 502.54296875 C-24.58853167 497.56113882 -26.58994295 492.22725084 -27.12890625 485.35546875 C-26.86768955 482.41678083 -26.70138149 480.86248269 -24.87890625 478.54296875 C-22.89890625 477.88296875 -20.91890625 477.22296875 -18.87890625 476.54296875 C-18.87890625 469.94296875 -18.87890625 463.34296875 -18.87890625 456.54296875 C-21.74578125 456.589375 -24.61265625 456.63578125 -27.56640625 456.68359375 C-30.36310051 456.71484694 -33.15977482 456.73910186 -35.95654297 456.76269531 C-37.89055177 456.78273016 -39.8245006 456.80996604 -41.75830078 456.84472656 C-44.54865368 456.89360446 -47.33820126 456.91601894 -50.12890625 456.93359375 C-51.41220825 456.96456146 -51.41220825 456.96456146 -52.72143555 456.99615479 C-59.64175684 456.99870377 -64.77430234 455.15852886 -70.0859375 450.68359375 C-70.88064453 449.74773437 -70.88064453 449.74773437 -71.69140625 448.79296875 C-72.50544922 447.87257813 -72.50544922 447.87257813 -73.3359375 446.93359375 C-78.66158101 438.68221698 -78.30421281 430.33984497 -78.25985718 420.87355042 C-78.26331612 419.26850963 -78.26808227 417.66347122 -78.27403891 416.05843776 C-78.28654624 411.65861093 -78.28037972 407.25897967 -78.27108026 402.8591522 C-78.26428897 398.10991499 -78.27477143 393.36071126 -78.28302002 388.61148071 C-78.29635898 379.31167722 -78.29347878 370.01194637 -78.2847821 360.71214003 C-78.27800621 353.15328624 -78.27708843 345.5944528 -78.28035355 338.03559685 C-78.28081325 336.95966375 -78.28127294 335.88373065 -78.28174657 334.77519352 C-78.28270575 332.58942437 -78.28367839 330.40365522 -78.28466435 328.21788608 C-78.29321883 307.72213178 -78.2833834 287.22641773 -78.26726325 266.73067003 C-78.25386193 249.14749358 -78.25618652 231.56437655 -78.27001953 213.98120117 C-78.2860776 193.56019819 -78.29239284 173.1392305 -78.28318274 152.71822208 C-78.2822271 150.5402002 -78.28128399 148.36217831 -78.28035355 146.18415642 C-78.27989072 145.11254383 -78.27942789 144.04093125 -78.27895104 142.93684556 C-78.2763617 135.3882988 -78.28073101 127.83977444 -78.28779221 120.29123116 C-78.29620999 111.09023451 -78.29392124 101.88931464 -78.27794997 92.68832678 C-78.27007076 87.99457064 -78.26696972 83.30094245 -78.27689743 78.60718727 C-78.28585212 74.30841359 -78.2808987 70.0098862 -78.26496477 65.71113478 C-78.26162023 64.15806367 -78.26330369 62.60497165 -78.27059214 61.05191404 C-78.31620004 50.52399714 -78.1477915 41.10069714 -70.6171875 33.046875 C-63.81516466 27.16197883 -56.24284288 26.39802595 -47.50390625 26.48046875 C-45.63605469 26.49400391 -45.63605469 26.49400391 -43.73046875 26.5078125 C-42.31894531 26.52521484 -42.31894531 26.52521484 -40.87890625 26.54296875 C-40.93111328 25.599375 -40.93111328 25.599375 -40.984375 24.63671875 C-41.24515623 16.39106465 -39.92894079 10.8007848 -34.75390625 4.29296875 C-25.64861126 -5.32343428 -11.39988099 -6.68268885 0 0 Z M-23.87890625 17.54296875 C-25.40065544 20.21378914 -25.40065544 20.21378914 -24.87890625 26.54296875 C-18.27890625 26.54296875 -11.67890625 26.54296875 -4.87890625 26.54296875 C-4.87890625 19.6966829 -4.88779448 18.47316565 -8.87890625 13.54296875 C-15.19435387 10.38524494 -19.80456711 12.3574462 -23.87890625 17.54296875 Z " fill="#E9F5FE" transform="translate(144.87890625,3.45703125)"/>
<path d="M0 0 C6.14943341 4.47334475 9.82806706 9.98897073 11.12109375 17.54296875 C11.15149519 19.0968983 11.15889866 20.65137149 11.14892578 22.20556641 C11.14490753 23.01740387 11.14088928 23.82924133 11.13674927 24.66567993 C11.12899979 25.5949379 11.12899979 25.5949379 11.12109375 26.54296875 C12.43534836 26.532976 12.43534836 26.532976 13.77615356 26.52278137 C22.04472807 26.46259915 30.3132287 26.4169582 38.58197212 26.38753223 C42.83273814 26.37189531 47.08332275 26.3506933 51.33398438 26.31665039 C55.43831026 26.28398623 59.54246194 26.26610089 63.64690781 26.25833702 C65.21056738 26.25280615 66.77421773 26.24200563 68.33780289 26.22577858 C70.53286377 26.20390989 72.72721049 26.20100567 74.92236328 26.20239258 C76.17034698 26.19573074 77.41833069 26.18906891 78.70413208 26.1822052 C82.51248492 26.58429191 84.91410747 27.46409737 88.12109375 29.54296875 C89.13570874 33.03070778 89.4738154 35.35654139 88.43359375 38.85546875 C86.82641602 40.92184012 85.53497874 41.54691916 83.12109375 42.54296875 C80.94222641 42.78906441 80.94222641 42.78906441 78.53997803 42.78347778 C77.62575073 42.78622711 76.71152344 42.78897644 75.76959229 42.79180908 C74.77409363 42.78461853 73.77859497 42.77742798 72.75292969 42.77001953 C71.69895996 42.77031158 70.64499023 42.77060364 69.55908203 42.77090454 C66.0744606 42.76951092 62.59005284 42.75394797 59.10546875 42.73828125 C56.68980018 42.73455124 54.2741301 42.73170421 51.85845947 42.72970581 C45.49950994 42.72206843 39.14065173 42.70241893 32.78173828 42.68029785 C26.29330684 42.65984175 19.80486064 42.65070459 13.31640625 42.640625 C0.58459645 42.61917323 -12.14715004 42.58542021 -24.87890625 42.54296875 C-24.76135534 49.03927897 -24.63652294 55.53541981 -24.5065918 62.03149414 C-24.46324073 64.24207373 -24.42156579 66.45268684 -24.3815918 68.66333008 C-24.32389359 71.83815624 -24.26019763 75.01281361 -24.1953125 78.1875 C-24.17860001 79.17820999 -24.16188751 80.16891998 -24.14466858 81.18965149 C-24.11475075 82.57074348 -24.11475075 82.57074348 -24.08422852 83.97973633 C-24.06091209 85.19552116 -24.06091209 85.19552116 -24.03712463 86.43586731 C-23.95080904 88.73443558 -23.95080904 88.73443558 -22.87890625 91.54296875 C-18.25725537 94.05186494 -14.08705926 94.13180955 -9.06640625 92.79296875 C-6.73165875 91.78116622 -6.73165875 91.78116622 -6.26586914 89.70629883 C-5.06756708 83.00714769 -3.66928599 73.82780601 -7.62890625 67.94140625 C-9.63381833 66.25871218 -11.65040555 64.90456854 -13.87890625 63.54296875 C-15.42477501 60.45123123 -15.17250146 57.94867323 -14.87890625 54.54296875 C-13.31640625 52.04296875 -13.31640625 52.04296875 -10.87890625 50.54296875 C-5.05182793 50.20019944 -1.54541986 52.82226539 2.91015625 56.16796875 C9.52243027 63.27090621 10.94642354 69.95822805 10.80859375 79.48046875 C10.83630859 80.50076172 10.86402344 81.52105469 10.89257812 82.57226562 C10.86830992 90.17791957 8.98498883 95.63739746 4.12109375 101.54296875 C-2.40266694 106.94968896 -8.71656664 110.04994062 -17.25390625 109.859375 C-24.16116376 109.02680378 -30.06769113 105.46352967 -34.87890625 100.54296875 C-38.65310673 94.83564119 -41.01180787 89.85594409 -40.99243164 82.95800781 C-40.99235611 82.0573761 -40.99228058 81.15674438 -40.99220276 80.2288208 C-40.98704147 79.26514587 -40.98188019 78.30147095 -40.9765625 77.30859375 C-40.97514755 76.31543152 -40.9737326 75.32226929 -40.97227478 74.29901123 C-40.96668213 71.13029963 -40.95413095 67.96165896 -40.94140625 64.79296875 C-40.9363903 62.64323019 -40.93182756 60.49349052 -40.92773438 58.34375 C-40.91671511 53.07679876 -40.89998425 47.80988882 -40.87890625 42.54296875 C-43.46467852 42.60310299 -46.04477435 42.69013997 -48.62890625 42.79296875 C-49.35851562 42.80714844 -50.088125 42.82132813 -50.83984375 42.8359375 C-54.14024838 42.98595589 -56.39600377 43.18716163 -59.09043545 45.1724444 C-61.44999494 48.29991688 -61.38110854 50.18178057 -61.38506413 54.0807333 C-61.39117748 54.73893968 -61.39729084 55.39714607 -61.40358946 56.0752981 C-61.41924522 58.29066611 -61.40630203 60.504948 -61.39356995 62.72032166 C-61.39889278 64.32063948 -61.40595694 65.92095231 -61.414617 67.52125555 C-61.43330641 71.92648253 -61.42691781 76.33137479 -61.41646397 80.73661602 C-61.40948974 85.48450042 -61.42545636 90.23231482 -61.4384613 94.98017883 C-61.46013653 104.28454755 -61.45996538 113.58879414 -61.45183576 122.89317983 C-61.44554335 130.45359984 -61.44666581 138.01398414 -61.45310783 145.57440376 C-61.45400949 146.64925835 -61.45491114 147.72411294 -61.45584012 148.83153887 C-61.45769127 151.01490009 -61.45955383 153.1982613 -61.46142768 155.3816225 C-61.47801848 175.87009322 -61.46927612 196.35849515 -61.4524421 216.84696174 C-61.43774454 235.60278314 -61.4523721 254.35844435 -61.48121227 273.11424511 C-61.51058554 292.35965459 -61.52158456 311.60499009 -61.51203007 330.85042101 C-61.51100748 333.02618665 -61.51001288 335.20195231 -61.50904655 337.37771797 C-61.50833197 338.98360488 -61.50833197 338.98360488 -61.50760295 340.62193395 C-61.50543605 348.17483822 -61.51525755 355.72767267 -61.52981758 363.28056145 C-61.5473094 372.48290965 -61.54726898 381.68505358 -61.52446593 390.88739365 C-61.51329492 395.58475912 -61.51022564 400.28176429 -61.52876663 404.97911453 C-61.54551196 409.27675552 -61.53930182 413.57372029 -61.51454984 417.87131698 C-61.50964647 419.4284736 -61.51323666 420.98568416 -61.52603728 422.54279589 C-61.54215829 424.65580592 -61.52763602 426.7664603 -61.50531864 428.87936306 C-61.50491411 430.64124058 -61.50491411 430.64124058 -61.5045014 432.43871158 C-60.67782317 436.54076034 -59.17014105 438.02489617 -55.87890625 440.54296875 C-53.44912041 441.27717917 -53.44912041 441.27717917 -50.85791779 441.17217445 C-49.86524509 441.18521319 -48.87257239 441.19825193 -47.84981871 441.21168578 C-46.76665514 441.20053217 -45.68349158 441.18937856 -44.56750488 441.17788696 C-43.41111527 441.18568692 -42.25472566 441.19348687 -41.06329393 441.20152318 C-37.85727501 441.21801633 -34.65220259 441.21208157 -31.44620728 441.19659209 C-27.98735658 441.18528303 -24.52863421 441.202739 -21.06980896 441.2164917 C-14.29552999 441.23873359 -7.52152789 441.23391882 -0.74723804 441.21942849 C4.75796286 441.20813993 10.26308613 441.20660368 15.76829529 441.21204758 C16.55160145 441.21281374 17.33490762 441.21357991 18.14195034 441.21436929 C19.73318504 441.2159679 21.32441971 441.21758897 22.91565436 441.21923225 C37.8393003 441.23349253 52.76279271 441.21709269 67.68641347 441.19023041 C80.49365592 441.16789134 93.30067179 441.17177139 106.10791016 441.19482422 C120.97787028 441.22157735 135.84769581 441.2321192 150.71767664 441.2167629 C152.30308181 441.21517014 153.888487 441.21359829 155.47389221 441.21204758 C156.25395692 441.2112762 157.03402162 441.21050482 157.83772466 441.20971007 C163.33679048 441.20539159 168.83577099 441.21268277 174.33482361 441.22444534 C181.03572581 441.23846352 187.73633515 441.23468507 194.43720376 441.20804162 C197.85667184 441.19489386 201.2756515 441.18976655 204.69511604 441.20628738 C208.40046614 441.2198971 212.10443118 441.20287929 215.80969238 441.17788696 C216.89285594 441.18904057 217.97601951 441.20019418 219.09200621 441.21168578 C220.58101525 441.19212767 220.58101525 441.19212767 222.10010529 441.17217445 C222.95518315 441.17136269 223.81026101 441.17055093 224.69125032 441.16971457 C228.34103791 440.22830037 229.84097946 438.49181086 232.12109375 435.54296875 C232.86043223 432.38347784 232.86043223 432.38347784 232.73912621 428.87656975 C232.74519502 428.21661033 232.75126384 427.5566509 232.75751656 426.87669271 C232.77177534 424.66113945 232.75032841 422.44737965 232.72909546 420.23190308 C232.73199163 418.62929807 232.73708172 417.02669577 232.74417937 415.42410386 C232.75731686 411.01716371 232.73921614 406.6108165 232.7160809 402.20393777 C232.69656945 397.45272346 232.70587885 392.701556 232.71166992 387.95031738 C232.71849441 378.64201903 232.69880605 369.33395446 232.67050664 360.02570401 C232.63869923 349.19298603 232.63425822 338.36030961 232.63131471 327.52755167 C232.62524705 308.20467703 232.59610996 288.88190721 232.55322266 269.55908203 C232.51161086 250.79475703 232.48328728 232.0304812 232.47119141 213.26611328 C232.47044319 212.11016882 232.46969498 210.95422437 232.46892409 209.76325129 C232.46594999 205.11733929 232.4630127 200.47142727 232.46013781 195.8255152 C232.44741147 175.80653593 232.42364846 155.7875677 232.39849955 135.76860076 C232.394516 132.52272757 232.39079793 129.27685417 232.38714552 126.03098059 C232.37413295 114.67131626 232.35782592 103.31167144 232.33216111 91.9520279 C232.32155804 87.25300277 232.31245692 82.55398867 232.30759048 77.85495377 C232.30305481 73.55829644 232.29389715 69.26167538 232.28092904 64.96503545 C232.27701629 63.40592583 232.27479093 61.84681094 232.27437083 60.28769647 C232.27353152 58.1776509 232.26662409 56.06771193 232.25810814 53.95768547 C232.25461217 52.1954819 232.25461217 52.1954819 232.25104558 50.39767826 C232.24773863 47.46830435 232.24773863 47.46830435 231.12109375 44.54296875 C228.23040904 43.42914365 225.41741026 43.41824235 222.34584045 43.418396 C221.38835403 43.41583298 220.43086761 43.41326996 219.44436646 43.41062927 C218.40061859 43.41272903 217.35687073 43.4148288 216.28149414 43.41699219 C214.62480461 43.41418999 214.62480461 43.41418999 212.93464661 43.41133118 C210.53598832 43.40732752 208.13732622 43.40525237 205.73866463 43.40486908 C200.64326926 43.40145586 195.54800177 43.38009944 190.45265102 43.35963821 C180.96329012 43.32158846 171.47406493 43.28980738 161.98461914 43.29248047 C155.38573592 43.29423936 148.78726079 43.26996521 142.18847466 43.23059845 C139.67227725 43.22011733 137.15602589 43.21862982 134.63981819 43.22624969 C131.12272268 43.23583996 127.60705439 43.21474728 124.09008789 43.18652344 C122.52750244 43.20181847 122.52750244 43.20181847 120.93334961 43.21742249 C113.86139859 43.11548398 113.86139859 43.11548398 109.99803162 40.12774658 C107.12109375 36.16584387 107.12109375 36.16584387 107.12109375 33.54296875 C108.8275799 29.77073621 110.3069671 28.06150797 114.12109375 26.54296875 C116.33729076 26.29128647 116.33729076 26.29128647 118.79350281 26.28900146 C120.19581902 26.28054199 120.19581902 26.28054199 121.62646484 26.27191162 C123.15460815 26.27798431 123.15460815 26.27798431 124.71362305 26.28417969 C126.33141411 26.27892273 126.33141411 26.27892273 127.98188782 26.27355957 C131.55309458 26.26474624 135.12410366 26.27059219 138.6953125 26.27734375 C141.17910297 26.2759965 143.66289318 26.27405546 146.14668274 26.27154541 C152.02553048 26.26821614 157.90430658 26.27522166 163.78314382 26.28584695 C169.78220389 26.29545866 175.78114035 26.2858786 181.7802 26.27508163 C186.91300156 26.26783748 192.04576515 26.27016322 197.17856789 26.27533722 C199.6356591 26.27666819 202.09275379 26.27504543 204.54984093 26.27037811 C207.99384996 26.26527427 211.4376018 26.27307874 214.8815918 26.28417969 C215.89023285 26.28013123 216.8988739 26.27608276 217.93807983 26.27191162 C227.9369816 26.33133384 235.69828522 27.49045906 243.12109375 34.54296875 C248.22874098 40.8603219 249.38057834 47.23713749 249.31640625 55.2265625 C249.31216141 56.27711571 249.31216141 56.27711571 249.30783081 57.34889221 C249.2967426 59.55960045 249.27166078 61.76988546 249.24609375 63.98046875 C249.23604921 65.49022847 249.22692595 66.99999463 249.21875 68.50976562 C249.19684089 72.18763472 249.16239133 75.86526035 249.12109375 79.54296875 C250.55775391 79.51154785 250.55775391 79.51154785 252.0234375 79.47949219 C255.60905751 79.40657396 259.19461328 79.36098317 262.78076172 79.32324219 C264.32677262 79.30324372 265.87270902 79.27603544 267.41845703 79.24121094 C277.49464227 79.02004225 284.79004859 79.06004441 292.87109375 85.85546875 C298.24204461 92.27077117 300.24369328 97.76125519 300.25252151 106.08517742 C300.25457415 106.74387379 300.25662678 107.40257017 300.25874162 108.08122703 C300.26441547 110.29795972 300.26295389 112.51463034 300.26153564 114.73136902 C300.26411906 116.33295508 300.26713216 117.93454049 300.27053905 119.536125 C300.27861509 123.94492753 300.28039895 128.35371377 300.28113651 132.76252282 C300.28298602 137.51454806 300.29053286 142.26656485 300.29727173 147.01858521 C300.31086003 157.41324807 300.31688059 167.80790708 300.32128239 178.20257735 C300.32404406 184.6919963 300.32828128 191.18141375 300.33278656 197.67083168 C300.34498004 215.63491694 300.35527909 233.59900101 300.35866165 251.56309032 C300.35888122 252.71308656 300.35910078 253.86308279 300.359327 255.0479274 C300.35954528 256.20069063 300.35976356 257.35345387 300.35998845 258.54114932 C300.36043192 260.87712363 300.36087848 263.21309795 300.36132812 265.54907227 C300.36154955 266.70779861 300.36177098 267.86652496 300.36199912 269.06036422 C300.36594717 287.83607386 300.38340104 306.61174469 300.40668765 325.38743933 C300.43039768 344.65997247 300.44286335 363.93248612 300.44402957 383.20503408 C300.44494654 394.02752598 300.45070446 404.84996732 300.46884918 415.6724453 C300.48424548 424.8881681 300.48937341 434.10382471 300.48111108 443.31955793 C300.47720288 448.02139425 300.47814251 452.72309728 300.49216843 457.42491722 C300.50489703 461.73124067 300.50371897 466.03733051 300.49157771 470.3436536 C300.48961891 471.89954074 300.49270763 473.45544437 300.50142208 475.01130833 C300.55127465 484.51547602 300.3184141 492.65294939 294.99609375 500.79296875 C287.64016083 507.8290785 280.96690433 509.2790593 270.98268127 509.18461609 C269.78556627 509.19312161 268.58845126 509.20162713 267.35506004 509.21039039 C264.05354224 509.2287441 260.75344523 509.2248659 257.45199764 509.21125114 C253.8833654 509.20196333 250.31487049 509.22150975 246.74627686 509.23722839 C239.76366784 509.26327102 232.78131669 509.26224051 225.79867763 509.25119021 C220.12151252 509.2426199 214.44442182 509.24347192 208.76725578 509.2509861 C207.55364448 509.25256843 207.55364448 509.25256843 206.31551577 509.25418273 C204.67170587 509.25635373 203.02789598 509.25854051 201.38408612 509.26074288 C185.98147791 509.28015803 170.57901415 509.26818901 155.17641776 509.24595693 C141.97224528 509.22770874 128.76835246 509.23860879 115.56420898 509.27026367 C100.21696303 509.30705442 84.86989168 509.32403807 69.52260154 509.3108514 C67.88465022 509.30951035 66.24669886 509.30820137 64.60874748 509.30692482 C63.80292518 509.30629415 62.99710289 509.30566349 62.16686173 509.30501371 C56.4997586 509.30199087 50.83278758 509.31322725 45.16571236 509.3301754 C38.25458325 509.35053336 31.34384862 509.34958078 24.43273992 509.321543 C20.9092619 509.30780165 17.38647178 509.30351699 13.86301994 509.32549286 C10.03714808 509.34903899 6.21235199 509.32576403 2.38648987 509.29814148 C1.28170951 509.31220793 0.17692915 509.32627438 -0.9613294 509.34076709 C-8.60950607 509.22970332 -13.85532047 507.30961494 -19.87890625 502.54296875 C-24.58853167 497.56113882 -26.58994295 492.22725084 -27.12890625 485.35546875 C-26.86768955 482.41678083 -26.70138149 480.86248269 -24.87890625 478.54296875 C-22.89890625 477.88296875 -20.91890625 477.22296875 -18.87890625 476.54296875 C-18.87890625 469.94296875 -18.87890625 463.34296875 -18.87890625 456.54296875 C-21.74578125 456.589375 -24.61265625 456.63578125 -27.56640625 456.68359375 C-30.36310051 456.71484694 -33.15977482 456.73910186 -35.95654297 456.76269531 C-37.89055177 456.78273016 -39.8245006 456.80996604 -41.75830078 456.84472656 C-44.54865368 456.89360446 -47.33820126 456.91601894 -50.12890625 456.93359375 C-51.41220825 456.96456146 -51.41220825 456.96456146 -52.72143555 456.99615479 C-59.64175684 456.99870377 -64.77430234 455.15852886 -70.0859375 450.68359375 C-70.88064453 449.74773437 -70.88064453 449.74773437 -71.69140625 448.79296875 C-72.50544922 447.87257813 -72.50544922 447.87257813 -73.3359375 446.93359375 C-78.66158101 438.68221698 -78.30421281 430.33984497 -78.25985718 420.87355042 C-78.26331612 419.26850963 -78.26808227 417.66347122 -78.27403891 416.05843776 C-78.28654624 411.65861093 -78.28037972 407.25897967 -78.27108026 402.8591522 C-78.26428897 398.10991499 -78.27477143 393.36071126 -78.28302002 388.61148071 C-78.29635898 379.31167722 -78.29347878 370.01194637 -78.2847821 360.71214003 C-78.27800621 353.15328624 -78.27708843 345.5944528 -78.28035355 338.03559685 C-78.28081325 336.95966375 -78.28127294 335.88373065 -78.28174657 334.77519352 C-78.28270575 332.58942437 -78.28367839 330.40365522 -78.28466435 328.21788608 C-78.29321883 307.72213178 -78.2833834 287.22641773 -78.26726325 266.73067003 C-78.25386193 249.14749358 -78.25618652 231.56437655 -78.27001953 213.98120117 C-78.2860776 193.56019819 -78.29239284 173.1392305 -78.28318274 152.71822208 C-78.2822271 150.5402002 -78.28128399 148.36217831 -78.28035355 146.18415642 C-78.27989072 145.11254383 -78.27942789 144.04093125 -78.27895104 142.93684556 C-78.2763617 135.3882988 -78.28073101 127.83977444 -78.28779221 120.29123116 C-78.29620999 111.09023451 -78.29392124 101.88931464 -78.27794997 92.68832678 C-78.27007076 87.99457064 -78.26696972 83.30094245 -78.27689743 78.60718727 C-78.28585212 74.30841359 -78.2808987 70.0098862 -78.26496477 65.71113478 C-78.26162023 64.15806367 -78.26330369 62.60497165 -78.27059214 61.05191404 C-78.31620004 50.52399714 -78.1477915 41.10069714 -70.6171875 33.046875 C-63.81516466 27.16197883 -56.24284288 26.39802595 -47.50390625 26.48046875 C-45.63605469 26.49400391 -45.63605469 26.49400391 -43.73046875 26.5078125 C-42.31894531 26.52521484 -42.31894531 26.52521484 -40.87890625 26.54296875 C-40.93111328 25.599375 -40.93111328 25.599375 -40.984375 24.63671875 C-41.24515623 16.39106465 -39.92894079 10.8007848 -34.75390625 4.29296875 C-25.64861126 -5.32343428 -11.39988099 -6.68268885 0 0 Z M-23.87890625 17.54296875 C-25.40065544 20.21378914 -25.40065544 20.21378914 -24.87890625 26.54296875 C-18.27890625 26.54296875 -11.67890625 26.54296875 -4.87890625 26.54296875 C-4.87890625 19.6966829 -4.88779448 18.47316565 -8.87890625 13.54296875 C-15.19435387 10.38524494 -19.80456711 12.3574462 -23.87890625 17.54296875 Z " fill="#020202" transform="translate(144.87890625,3.45703125)"/>
<path d="M0 0 C4.16249607 -0.12422509 8.3239917 -0.21462647 12.48779297 -0.2746582 C13.90204682 -0.29969925 15.31617257 -0.33374342 16.72998047 -0.37719727 C29.94556728 -0.77301294 29.94556728 -0.77301294 33.91415977 1.56063747 C38.10479816 6.28850325 36.80911783 14.395576 36.7484436 20.34230042 C36.75392388 21.94832298 36.76202727 23.55433839 36.77253091 25.16033596 C36.793737 29.57680983 36.77742729 33.99247607 36.75502992 38.40891492 C36.73736929 43.17040196 36.75422601 47.93178196 36.76675415 52.69326782 C36.78574766 62.02197138 36.77251566 71.35036592 36.74822827 80.67904658 C36.72101156 91.5365171 36.72426188 102.39391368 36.72849493 113.25140964 C36.73487718 132.61973703 36.71152463 151.98791738 36.67236328 171.35620117 C36.6343486 190.1622363 36.62018923 208.96809912 36.63134766 227.77416992 C36.64345525 248.24053337 36.64312421 268.706821 36.62037599 289.17317814 C36.61796134 291.35424641 36.61554937 293.5353147 36.61314011 295.71638298 C36.61193303 296.78958409 36.61072595 297.86278519 36.6094823 298.96850755 C36.60171442 306.5419111 36.6025149 314.11528647 36.6063118 321.68869209 C36.61055007 330.91372908 36.60015041 340.13861492 36.57108469 349.36360926 C36.55656839 354.07295145 36.54846659 358.78207318 36.55757141 363.4914341 C36.56569665 367.79878675 36.55547344 372.10568332 36.53031926 376.4129666 C36.52444106 377.97477848 36.52536181 379.53663309 36.53360541 381.09843428 C36.54376685 383.2150456 36.52951968 385.33011526 36.50895119 387.44661808 C36.50721763 388.6240785 36.50548408 389.80153893 36.50369799 391.01467997 C35.89523924 394.62089666 34.83071662 395.76468985 32 398 C29.57658808 399.21170596 28.04111934 399.12966763 25.33253765 399.13701439 C23.84726323 399.1446262 23.84726323 399.1446262 22.33198327 399.15239179 C20.68829372 399.15313843 20.68829372 399.15313843 19.01139832 399.15390015 C17.85348842 399.1582824 16.69557853 399.16266465 15.50258046 399.1671797 C12.27870104 399.17826073 9.05484903 399.18479723 5.83095491 399.18936086 C2.35777767 399.195311 -1.11538161 399.20692223 -4.58854675 399.21765137 C-12.98083051 399.24218774 -21.37312022 399.25680374 -29.76542881 399.26971143 C-32.13481126 399.27342228 -34.50419311 399.27739559 -36.87357497 399.2814641 C-51.5797799 399.30669803 -66.28598573 399.32875619 -80.99220753 399.34119225 C-84.39950883 399.34412205 -87.8068101 399.3470837 -91.21411133 399.35009766 C-92.48444939 399.35121673 -92.48444939 399.35121673 -93.78045084 399.35235842 C-107.50544484 399.36501721 -121.23030943 399.39824665 -134.95524291 399.43989949 C-149.0386758 399.48229083 -163.12204239 399.50588398 -177.20553893 399.51111281 C-185.11606032 399.51452998 -193.02637946 399.52632099 -200.93683815 399.55921555 C-207.67253556 399.58717877 -214.40798926 399.59823189 -221.14374021 399.58702008 C-224.58144566 399.58182384 -228.01864045 399.58478148 -231.45627213 399.60948563 C-235.1814283 399.63202525 -238.90528659 399.62395118 -242.63044739 399.60800171 C-243.71954826 399.6218838 -244.80864913 399.63576588 -245.93075305 399.65006864 C-253.24617217 399.57257595 -253.24617217 399.57257595 -257.1659193 396.59530067 C-259.33743526 393.52251504 -259.76281851 391.50747794 -260.15234375 387.8671875 C-261.15648073 385.13480243 -261.15648073 385.13480243 -267 383 C-267 376.07 -267 369.14 -267 362 C-263.9277713 361.99635437 -260.8555426 361.99270874 -257.69021606 361.98895264 C-229.49728993 361.95365301 -201.30447399 361.89859696 -173.11163253 361.82207905 C-169.41426584 361.81206196 -165.7168987 361.80221777 -162.01953125 361.79248047 C-161.28347251 361.7905391 -160.54741376 361.78859772 -159.78905021 361.78659752 C-147.88123536 361.75560238 -135.97343976 361.73860382 -124.06559218 361.72680578 C-111.84101491 361.71438131 -99.61653847 361.68685074 -87.39202487 361.64538693 C-79.85283853 361.6202885 -72.31381949 361.60688004 -64.77459078 361.60857043 C-58.9870382 361.60860379 -53.19970743 361.58758848 -47.41223335 361.55883217 C-45.04276417 361.55032681 -42.67325932 361.54858752 -40.30378151 361.55419731 C-37.06202432 361.5608488 -33.82127603 361.54288767 -30.57962036 361.51898193 C-29.64768455 361.52674235 -28.71574873 361.53450277 -27.75557244 361.54249835 C-20.32955856 361.44593006 -13.43748951 359.77092503 -7.5625 355.03515625 C-7.046875 354.38417969 -6.53125 353.73320312 -6 353.0625 C-5.46375 352.41410156 -4.9275 351.76570313 -4.375 351.09765625 C-1.5521602 346.79122166 -0.74946797 343.13141689 -0.73828697 338.01238537 C-0.73082148 336.80414205 -0.72335599 335.59589873 -0.71566427 334.35104197 C-0.71744098 333.01374677 -0.71940186 331.6764518 -0.7215271 330.3391571 C-0.71652388 328.91590727 -0.71064801 327.49266028 -0.70397437 326.0694173 C-0.68816348 322.1585581 -0.68474309 318.24777072 -0.68332577 314.33688343 C-0.67963362 310.11946048 -0.66447907 305.90207703 -0.65071106 301.68467712 C-0.62842858 294.37777303 -0.61342124 287.07088298 -0.60334396 279.76395226 C-0.5887634 269.19933949 -0.56322831 258.63477559 -0.53501268 248.07019148 C-0.48953338 230.93018941 -0.45292327 213.79018032 -0.421875 196.65014648 C-0.39169412 179.99941778 -0.35734597 163.34870627 -0.31738281 146.69799805 C-0.31492126 145.67178519 -0.31245972 144.64557232 -0.30992357 143.5882621 C-0.29754906 138.4400946 -0.28509251 133.29192729 -0.27259517 128.14376009 C-0.16901033 85.42919738 -0.07981269 42.7146133 0 0 Z " fill="#CCBEB9" transform="translate(393,98)"/>
<path d="M0 0 C0.97135391 -0.00852997 1.94270782 -0.01705994 2.9434967 -0.02584839 C3.99763763 -0.02494202 5.05177856 -0.02403564 6.13786316 -0.02310181 C7.25715714 -0.02981903 8.37645111 -0.03653625 9.52966309 -0.04345703 C13.23008158 -0.06245562 16.93031885 -0.06636226 20.63078308 -0.06851196 C23.2052213 -0.07493878 25.77965878 -0.08166705 28.35409546 -0.08868408 C33.75176497 -0.10066166 39.14936268 -0.10445012 44.54704285 -0.10317993 C50.77225302 -0.10197938 56.997116 -0.12306713 63.22223836 -0.15466726 C69.2252988 -0.18404661 75.22817182 -0.19115398 81.23131371 -0.18996048 C83.77856043 -0.1923182 86.32580982 -0.20115128 88.87301064 -0.21662521 C92.43945076 -0.23626141 96.0050019 -0.23045532 99.57145691 -0.21841431 C100.61952515 -0.22965332 101.66759338 -0.24089233 102.74742126 -0.25247192 C110.08639374 -0.18963703 115.36264751 1.08655945 121.07218933 6.01351929 C121.74121277 6.85076538 121.74121277 6.85076538 122.42375183 7.70492554 C123.11597839 8.53830444 123.11597839 8.53830444 123.82218933 9.38851929 C127.8843553 15.61113658 127.42106391 21.98546311 127.4193573 29.18734741 C127.42373983 31.26174494 127.46012703 33.33402747 127.49797058 35.40805054 C127.50183777 36.72289429 127.50570496 38.03773804 127.50968933 39.39242554 C127.5179071 40.59125366 127.52612488 41.79008179 127.53459167 43.02523804 C126.95701727 46.87960395 125.77098559 48.53062252 123.04875183 51.26742554 C120.05588301 52.19228519 118.25901782 51.72603496 115.04875183 51.26742554 C112.59940785 48.96040031 112.08364096 47.53603567 111.64811707 44.18295288 C111.62793518 42.41105591 111.62793518 42.41105591 111.60734558 40.60336304 C111.56770691 38.67363647 111.56770691 38.67363647 111.52726746 36.70492554 C111.51237046 35.35077179 111.4987126 33.99660389 111.48625183 32.64242554 C111.4549541 29.9830665 111.40940716 27.32500836 111.35734558 24.66586304 C111.33885559 22.89734985 111.33885559 22.89734985 111.31999207 21.09310913 C111.33824899 18.13271866 111.33824899 18.13271866 109.04875183 16.26742554 C106.98173708 15.96398306 106.98173708 15.96398306 104.56974792 16.01345825 C103.62750366 16.0078186 102.6852594 16.00217896 101.71446228 15.99636841 C100.67751221 16.00041687 99.64056213 16.00446533 98.57218933 16.00863647 C97.48270996 16.00513184 96.39323059 16.0016272 95.27073669 15.99801636 C91.65501102 15.98918496 88.03947963 15.99505323 84.42375183 16.00180054 C81.92033348 16.00045429 79.41691538 15.99851411 76.91349792 15.9960022 C71.6610362 15.99304902 66.40862539 15.99716519 61.15617371 16.00668335 C55.07926365 16.0175682 49.00248778 16.01404272 42.92558098 16.00303054 C37.08537634 15.99286993 31.24522282 15.99393399 25.40501404 15.99979401 C22.91701743 16.00113196 20.42901742 15.99947774 17.94102478 15.9948349 C14.46902786 15.98977833 10.99729173 15.99746781 7.52531433 16.00863647 C6.48836426 16.00458801 5.45141418 16.00053955 4.38304138 15.99636841 C2.96967499 16.00482788 2.96967499 16.00482788 1.52775574 16.01345825 C0.70627045 16.0142123 -0.11521484 16.01496635 -0.96159363 16.01574326 C-3.18257427 16.09023306 -3.18257427 16.09023306 -4.95124817 18.26742554 C-5.25469065 20.33444029 -5.25469065 20.33444029 -5.20521545 22.74642944 C-5.2108551 23.68867371 -5.21649475 24.63091797 -5.2223053 25.60171509 C-5.21825684 26.63866516 -5.21420837 27.67561523 -5.21003723 28.74398804 C-5.21354187 29.83346741 -5.21704651 30.92294678 -5.22065735 32.04544067 C-5.22948874 35.66116635 -5.22362047 39.27669773 -5.21687317 42.89242554 C-5.21821941 45.39584389 -5.2201596 47.89926199 -5.22267151 50.40267944 C-5.22562468 55.65514117 -5.22150851 60.90755198 -5.21199036 66.16000366 C-5.2011055 72.23691372 -5.20463099 78.31368959 -5.21564317 84.39059639 C-5.22580377 90.23080102 -5.22473972 96.07095454 -5.2188797 101.91116333 C-5.21754175 104.39915994 -5.21919597 106.88715995 -5.22383881 109.37515259 C-5.22889538 112.8471495 -5.22120589 116.31888564 -5.21003723 119.79086304 C-5.21408569 120.82781311 -5.21813416 121.86476318 -5.2223053 122.93313599 C-5.21384583 124.34650238 -5.21384583 124.34650238 -5.20521545 125.78842163 C-5.20408438 127.02064957 -5.20408438 127.02064957 -5.20293045 128.277771 C-5.12844065 130.49875164 -5.12844065 130.49875164 -2.95124817 132.26742554 C-0.05901314 132.73139247 -0.05901314 132.73139247 3.17375183 132.89242554 C4.26945496 132.96719116 5.36515808 133.04195679 6.49406433 133.11898804 C7.33711121 133.16797241 8.18015808 133.21695679 9.04875183 133.26742554 C9.15187683 132.13305054 9.25500183 130.99867554 9.36125183 129.82992554 C11.11495863 116.34534218 17.66016155 106.74451521 28.04875183 98.26742554 C28.70875183 97.60742554 29.36875183 96.94742554 30.04875183 96.26742554 C29.45062683 95.64867554 28.85250183 95.02992554 28.23625183 94.39242554 C22.01961909 85.51152162 22.54996267 75.12864564 22.60270691 64.71713257 C22.61125774 62.14064615 22.58231414 59.56635258 22.55070496 56.99008179 C22.54909339 55.32992619 22.54966963 53.66976672 22.55265808 52.00961304 C22.5414241 51.25107025 22.53019012 50.49252747 22.51861572 49.71099854 C22.60164763 43.26820411 24.57892185 38.06656619 28.86515808 33.20883179 C29.72947449 32.52627319 29.72947449 32.52627319 30.61125183 31.82992554 C31.19004089 31.3568396 31.76882996 30.88375366 32.36515808 30.39633179 C37.55542307 26.9160845 44.49282457 27.96648143 50.50749207 27.91732788 C51.984541 27.90082454 53.46151192 27.8736085 54.93815613 27.83529663 C70.83760094 27.42556304 70.83760094 27.42556304 77.04875183 33.26742554 C82.59683862 39.10751689 83.36365155 44.42418758 83.38468933 52.15414429 C83.39467453 53.43971977 83.39467453 53.43971977 83.40486145 54.75126648 C83.41496552 56.5625393 83.41967917 58.37384917 83.4193573 60.18515015 C83.42371024 62.92871109 83.45999626 65.67063541 83.49797058 68.41390991 C83.55556372 77.39854159 83.60316518 85.23672209 79.04875183 93.26742554 C78.37879089 94.59910664 77.71117028 95.93197654 77.04875183 97.26742554 C77.68941589 97.78949585 78.33007996 98.31156616 78.99015808 98.84945679 C88.01481134 106.52915427 94.99490153 115.31597284 97.04875183 127.26742554 C97.08907578 129.26701899 97.09779912 131.26802704 97.04875183 133.26742554 C99.00776637 133.153599 100.96598563 133.02601429 102.92375183 132.89242554 C104.55957214 132.78801147 104.55957214 132.78801147 106.22843933 132.68148804 C109.17921657 132.53489062 109.17921657 132.53489062 111.04875183 130.26742554 C111.35239298 127.91013201 111.35239298 127.91013201 111.30412292 125.14682007 C111.31108185 124.07876129 111.31804077 123.01070251 111.32521057 121.91027832 C111.32371506 120.17280838 111.32371506 120.17280838 111.32218933 118.40023804 C111.34247844 115.96403553 111.36332922 113.52783764 111.38468933 111.09164429 C111.40730909 107.2379263 111.42376402 103.38439049 111.42961121 99.53060913 C111.43911181 95.8201475 111.47286425 92.11051482 111.50968933 88.40023804 C111.50464386 87.24597321 111.49959839 86.09170837 111.49440002 84.90246582 C111.50766327 83.82810272 111.52092651 82.75373962 111.53459167 81.64682007 C111.53744171 80.70243073 111.54029175 79.75804138 111.54322815 78.78503418 C112.20115817 75.5084116 113.45664761 74.31433449 116.04875183 72.26742554 C119.8920408 71.53147659 121.44923868 71.86449668 124.70304871 74.05136108 C128.25352892 78.9192291 127.72778111 83.40784651 127.64250183 89.28695679 C127.64254211 90.45949509 127.6425824 91.63203339 127.6426239 92.84010315 C127.63726676 95.31894288 127.61967611 97.79778207 127.59074402 100.27645874 C127.54901728 104.0558819 127.54966678 107.83351475 127.55656433 111.61312866 C127.54606687 114.02525034 127.53312579 116.43736287 127.51750183 118.84945679 C127.51730042 119.97366531 127.517099 121.09787384 127.51689148 122.25614929 C127.40342421 129.84621191 126.73375043 135.89199873 121.86125183 142.01742554 C114.67067354 147.76988817 108.63513625 148.85733383 99.52726746 148.8008728 C97.83303902 148.81379616 97.83303902 148.81379616 96.10458374 148.82698059 C92.38782034 148.84959964 88.67181333 148.84290905 84.95500183 148.83383179 C82.36242957 148.83906881 79.76985923 148.84534558 77.17729187 148.85261536 C71.7503917 148.86301191 66.32377836 148.85879934 60.89689636 148.84384155 C54.63913264 148.82691585 48.38206629 148.84276956 42.12437868 148.87506443 C36.08334831 148.90505036 30.04267122 148.9069311 24.0015564 148.89756584 C21.44035942 148.89674682 18.87914787 148.90360075 16.31799316 148.91833687 C12.73489316 148.93579455 9.15327706 148.92122766 5.57023621 148.89852905 C3.99117744 148.91606735 3.99117744 148.91606735 2.38021851 148.93395996 C-5.14609594 148.83716307 -9.9959755 147.01904826 -15.47216034 141.82482243 C-21.35470703 135.33056071 -21.24898061 128.43344571 -21.24177551 120.15658569 C-21.24849274 119.04689926 -21.25520996 117.93721283 -21.26213074 116.79389954 C-21.28110382 113.13138329 -21.28503452 109.46905034 -21.28718567 105.80648804 C-21.29361366 103.2558993 -21.30034202 100.70531131 -21.30735779 98.15472412 C-21.31932855 92.81010939 -21.32312455 87.46556273 -21.32185364 82.12094116 C-21.32065254 75.95762486 -21.34175384 69.7946589 -21.37334096 63.63143122 C-21.40272002 57.68552549 -21.40982773 51.73972603 -21.40863419 45.79374313 C-21.41099152 43.27161605 -21.41982243 40.74948625 -21.43529892 38.22740555 C-21.45493592 34.69699421 -21.44912902 31.16748083 -21.43708801 27.63705444 C-21.44832703 26.59990799 -21.45956604 25.56276154 -21.47114563 24.4941864 C-21.40796694 17.18931149 -20.10835982 11.92600235 -15.20515442 6.24398804 C-14.64699036 5.79797241 -14.08882629 5.35195679 -13.51374817 4.89242554 C-12.95816223 4.43094116 -12.40257629 3.96945679 -11.83015442 3.49398804 C-8.01098709 1.00081019 -4.53673625 0.01809291 0 0 Z " fill="#050405" transform="translate(124.95124816894531,133.73257446289063)"/>
<path d="M0 0 C1.17349503 -0.0038269 2.34699005 -0.00765381 3.55604553 -0.01159668 C6.03305928 -0.01431371 8.51010183 -0.00696732 10.98706055 0.00976562 C14.76872087 0.03115703 18.5484771 0.0099646 22.33007812 -0.015625 C24.74088959 -0.01298131 27.15169988 -0.0078555 29.5625 0 C31.25184914 -0.01214539 31.25184914 -0.01214539 32.97532654 -0.02453613 C39.47152428 0.05264654 43.72534446 0.38115471 48.84765625 4.53125 C53.77819455 10.37629891 54.56783495 15.5164444 54.46289062 22.98291016 C54.46843964 23.99856552 54.47398865 25.01422089 54.47970581 26.06065369 C54.4914589 29.39769562 54.46727292 32.73336678 54.44140625 36.0703125 C54.43969418 38.39863015 54.43976181 40.72694973 54.44152832 43.05526733 C54.43987762 47.92570532 54.42122214 52.79568162 54.38964844 57.66601562 C54.34992807 63.90486362 54.34561003 70.14310861 54.35311127 76.3820591 C54.35618203 81.18622347 54.34405728 85.99025258 54.32698059 90.794384 C54.31995693 93.09485399 54.31682529 95.3953393 54.31767273 97.69581985 C54.31587287 100.91028773 54.29447532 104.1240357 54.26757812 107.33837891 C54.27050873 108.28606644 54.27343933 109.23375397 54.27645874 110.2101593 C54.19816942 116.28147202 53.40520321 120.7586366 49.12890625 125.39453125 C48.54109375 125.87277344 47.95328125 126.35101563 47.34765625 126.84375 C46.4659375 127.58044922 46.4659375 127.58044922 45.56640625 128.33203125 C42.39952738 130.54164901 39.56651791 130.66732461 35.82885742 130.70825195 C34.80737106 130.72108719 33.7858847 130.73392242 32.73344421 130.74714661 C31.63031387 130.75453354 30.52718353 130.76192047 29.390625 130.76953125 C28.25490555 130.777603 27.1191861 130.78567474 25.9490509 130.79399109 C23.54409307 130.80782793 21.13911564 130.81855187 18.73413086 130.82641602 C15.06000512 130.84363355 11.38677803 130.88752539 7.71289062 130.93164062 C5.3763087 130.94176723 3.03971913 130.95028343 0.703125 130.95703125 C-0.94246147 130.98329338 -0.94246147 130.98329338 -2.62129211 131.01008606 C-9.94809868 130.98929435 -13.50078767 130.07872373 -18.796875 124.93359375 C-21.95122021 120.97747517 -23.26950753 118.25612929 -23.3062439 113.2381134 C-23.31484436 112.36206451 -23.32344482 111.48601562 -23.33230591 110.5834198 C-23.33656586 109.62494644 -23.34082581 108.66647308 -23.34521484 107.67895508 C-23.35748108 106.16138611 -23.35748108 106.16138611 -23.36999512 104.61315918 C-23.39484315 101.25903922 -23.41136452 97.9049616 -23.42578125 94.55078125 C-23.43110493 93.40509863 -23.4364286 92.25941601 -23.4419136 91.07901573 C-23.46864378 85.0138656 -23.48801835 78.94873603 -23.50244141 72.88354492 C-23.51908054 66.62337595 -23.56385327 60.36373429 -23.61481285 54.10376453 C-23.64849395 49.28669134 -23.66001989 44.46974313 -23.66566849 39.6525631 C-23.67237945 37.3453233 -23.68759736 35.03809169 -23.7115593 32.73096657 C-23.74322809 29.49704857 -23.74324432 26.26455036 -23.73583984 23.03051758 C-23.75224518 22.08216537 -23.76865051 21.13381317 -23.78555298 20.15672302 C-23.72536704 13.71631744 -22.23714343 9.5402522 -18.15234375 4.53125 C-12.82709967 -0.61422826 -6.99475844 -0.05019781 0 0 Z " fill="#010102" transform="translate(297.15234375,266.46875)"/>
<path d="M0 0 C1.41326065 -0.01268921 1.41326065 -0.01268921 2.85507202 -0.02563477 C4.40274765 -0.01652573 4.40274765 -0.01652573 5.98168945 -0.00723267 C7.61371811 -0.0151181 7.61371811 -0.0151181 9.27871704 -0.02316284 C12.88427987 -0.03639397 16.48940318 -0.02761345 20.0949707 -0.01748657 C22.59456467 -0.0195064 25.09415806 -0.02241708 27.59375 -0.02618408 C32.83606472 -0.03061166 38.07826458 -0.02444735 43.32055664 -0.01016235 C49.38218819 0.00616451 55.44351704 0.00087607 61.50514126 -0.01564157 C67.33521934 -0.03089266 73.16518231 -0.02928258 78.99526978 -0.02049637 C81.47685793 -0.01849109 83.95845378 -0.02096507 86.44003296 -0.02793503 C89.9046493 -0.0355298 93.36867942 -0.02397237 96.83325195 -0.00723267 C97.86503571 -0.01330536 98.89681946 -0.01937805 99.95986938 -0.02563477 C100.90204315 -0.01717529 101.84421692 -0.00871582 102.81494141 0 C104.04383842 0.00169662 104.04383842 0.00169662 105.29756165 0.00342751 C107.93507066 0.47535374 108.82007276 1.25133207 110.4074707 3.38095093 C110.80810547 6.33602905 110.80810547 6.33602905 110.84887695 9.91220093 C110.88851562 11.8399939 110.88851562 11.8399939 110.92895508 13.80673218 C110.94384824 15.16479225 110.95750676 16.52286639 110.9699707 17.88095093 C111.00131972 20.53770071 111.04691859 23.19316315 111.09887695 25.84970093 C111.11736694 27.61990601 111.11736694 27.61990601 111.13623047 29.4258728 C111.18805194 32.56784238 111.18805194 32.56784238 113.4074707 35.38095093 C116.47303668 36.11438521 116.47303668 36.11438521 119.4074707 36.38095093 C118.4174707 36.87595093 118.4174707 36.87595093 117.4074707 37.38095093 C117.4074707 43.98095093 117.4074707 50.58095093 117.4074707 57.38095093 C115.4274707 58.04095093 113.4474707 58.70095093 111.4074707 59.38095093 C111.39867134 60.42331657 111.39867134 60.42331657 111.38969421 61.48674011 C111.3317973 68.03471102 111.25973844 74.58235482 111.17175579 81.12999439 C111.1270223 84.4962557 111.08777331 87.86239516 111.06103516 91.22885132 C111.0275809 95.09886814 110.97526818 98.9682354 110.91918945 102.83798218 C110.91279953 104.04742996 110.90640961 105.25687775 110.89982605 106.50297546 C110.88003189 107.62391098 110.86023773 108.7448465 110.83984375 109.89974976 C110.82874069 110.88792191 110.81763763 111.87609406 110.80619812 112.89421082 C110.4074707 115.38095093 110.4074707 115.38095093 109.06282043 117.20521545 C106.5106657 119.01791932 104.2933844 118.66759331 101.2199707 118.56845093 C100.13329102 118.54138062 99.04661133 118.5143103 97.92700195 118.48641968 C96.67983398 118.43421265 96.67983398 118.43421265 95.4074707 118.38095093 C95.19993164 117.35356812 94.99239258 116.3261853 94.77856445 115.26766968 C91.66437355 100.85974165 85.97293661 91.80552576 74.4074707 82.38095093 C75.39058271 80.40091915 76.37579059 78.43724337 77.46020508 76.51034546 C81.45634991 68.36623228 81.01236946 59.83894365 80.92895508 50.97616577 C80.90746102 48.25472469 80.92885285 45.53590678 80.9543457 42.81454468 C80.9517031 41.06323684 80.9465795 39.31193062 80.9387207 37.56063843 C80.94681763 36.75834808 80.95491455 35.95605774 80.96325684 35.12945557 C80.87013365 29.45764393 79.55875074 25.13225277 76.4074707 20.38095093 C69.46107877 13.78187859 62.96020806 14.00832046 53.81835938 14.01034546 C51.61224413 14.00598507 49.40815248 13.9696818 47.20239258 13.93173218 C45.78508165 13.92586057 44.3677613 13.92189348 42.95043945 13.92001343 C41.67193115 13.91179565 40.39342285 13.90357788 39.07617188 13.89511108 C34.01452273 14.56541665 30.25938386 16.45014461 26.6652832 20.19735718 C26.29145508 20.77356812 25.91762695 21.34977905 25.5324707 21.94345093 C25.14317383 22.52223999 24.75387695 23.10102905 24.3527832 23.69735718 C22.01363987 27.86335213 22.22943341 32.00471782 22.2043457 36.63485718 C22.19579559 37.85808937 22.19579559 37.85808937 22.18707275 39.10603333 C22.17762543 40.83511053 22.17108983 42.56420572 22.16723633 44.29330444 C22.15759603 46.90944001 22.12659831 49.52476752 22.0949707 52.14071655 C22.02309869 63.39532101 22.33293895 73.11087483 29.4074707 82.38095093 C28.82739258 82.79345093 28.24731445 83.20595093 27.6496582 83.63095093 C15.14878159 92.87252308 10.4213383 103.40294227 7.4074707 118.38095093 C5.47065909 118.46202676 3.53287731 118.52017567 1.5949707 118.56845093 C0.51602539 118.60325562 -0.56291992 118.6380603 -1.67456055 118.67391968 C-4.5925293 118.38095093 -4.5925293 118.38095093 -6.25109291 117.14967346 C-7.96924625 114.88423877 -7.96957737 113.61535034 -7.97348022 110.78842163 C-7.9819397 109.84624786 -7.99039917 108.9040741 -7.99911499 107.93334961 C-7.9930423 106.90156586 -7.9869696 105.8697821 -7.98071289 104.80673218 C-7.98596985 103.71871307 -7.99122681 102.63069397 -7.99664307 101.50970459 C-8.0098742 97.90414176 -8.00109367 94.29901845 -7.9909668 90.69345093 C-7.99298663 88.19385696 -7.9958973 85.69426357 -7.99966431 83.19467163 C-8.00409188 77.95235691 -7.99792758 72.71015705 -7.98364258 67.46786499 C-7.96731571 61.40623344 -7.97260415 55.34490459 -7.98912179 49.28328037 C-8.00437289 43.45320229 -8.00276281 37.62323932 -7.99397659 31.79315186 C-7.99197131 29.3115637 -7.9944453 26.82996785 -8.00141525 24.34838867 C-8.00901003 20.88377233 -7.99745259 17.41974221 -7.98071289 13.95516968 C-7.98678558 12.92338593 -7.99285828 11.89160217 -7.99911499 10.82855225 C-7.99065552 9.88637848 -7.98219604 8.94420471 -7.97348022 7.97348022 C-7.97234915 7.15421555 -7.97121807 6.33495087 -7.97005272 5.49085999 C-7.13600064 0.82949613 -4.35464744 0.00601203 0 0 Z " fill="#E55266" transform="translate(126.592529296875,148.61904907226563)"/>
<path d="M0 0 C30 0 30 0 36 5 C36.74979365 8.1106692 36.74979365 8.1106692 36.74946022 11.67922306 C36.75758167 12.34057126 36.76570312 13.00191946 36.77407068 13.68330851 C36.79399523 15.90383107 36.77109895 18.12183393 36.7484436 20.34230042 C36.75392388 21.94832298 36.76202727 23.55433839 36.77253091 25.16033596 C36.793737 29.57680983 36.77742729 33.99247607 36.75502992 38.40891492 C36.73736929 43.17040196 36.75422601 47.93178196 36.76675415 52.69326782 C36.78574766 62.02197138 36.77251566 71.35036592 36.74822827 80.67904658 C36.72101156 91.5365171 36.72426188 102.39391368 36.72849493 113.25140964 C36.73487718 132.61973703 36.71152463 151.98791738 36.67236328 171.35620117 C36.6343486 190.1622363 36.62018923 208.96809912 36.63134766 227.77416992 C36.64345525 248.24053337 36.64312421 268.706821 36.62037599 289.17317814 C36.61796134 291.35424641 36.61554937 293.5353147 36.61314011 295.71638298 C36.61193303 296.78958409 36.61072595 297.86278519 36.6094823 298.96850755 C36.60171442 306.5419111 36.6025149 314.11528647 36.6063118 321.68869209 C36.61055007 330.91372908 36.60015041 340.13861492 36.57108469 349.36360926 C36.55656839 354.07295145 36.54846659 358.78207318 36.55757141 363.4914341 C36.56569665 367.79878675 36.55547344 372.10568332 36.53031926 376.4129666 C36.52444106 377.97477848 36.52536181 379.53663309 36.53360541 381.09843428 C36.54376685 383.2150456 36.52951968 385.33011526 36.50895119 387.44661808 C36.50635086 389.21280871 36.50635086 389.21280871 36.50369799 391.01467997 C35.89523924 394.62089666 34.83071662 395.76468985 32 398 C29.47524538 399.26237731 27.68799534 399.09856404 24.875 399.0625 C23.96492188 399.05347656 23.05484375 399.04445313 22.1171875 399.03515625 C21.41851562 399.02355469 20.71984375 399.01195312 20 399 C20.24360679 397.9679993 20.24360679 397.9679993 20.49213493 396.91515011 C21.05706418 393.6724511 21.12538447 390.64989678 21.12584114 387.3575983 C21.12729458 386.70022605 21.12874802 386.04285379 21.13024551 385.36556116 C21.13389941 383.15937935 21.1304219 380.95326689 21.12698364 378.74708557 C21.1281357 377.15074835 21.1297238 375.55441139 21.13171089 373.95807499 C21.13589258 369.56853917 21.13381872 365.17902505 21.13072467 360.78948915 C21.12846608 356.05662855 21.13195249 351.32377172 21.13470459 346.59091187 C21.13915643 337.31779331 21.13818838 328.04468283 21.13529195 318.77156395 C21.13303549 311.23597805 21.13272645 303.70039442 21.13381577 296.16480827 C21.133969 295.09315326 21.13412223 294.02149825 21.13428011 292.91736884 C21.13459983 290.7404519 21.13492404 288.56353495 21.1352527 286.38661801 C21.13810581 265.96251569 21.13482318 245.53841786 21.12945233 225.11431628 C21.12498509 207.5836142 21.1257599 190.05291875 21.13037109 172.5222168 C21.13572093 152.17378774 21.13783046 131.82536261 21.13475883 111.47693294 C21.13444028 109.30762446 21.1341259 107.13831598 21.13381577 104.96900749 C21.13366149 103.90161603 21.13350721 102.83422457 21.13334826 101.73448791 C21.13248429 94.20711637 21.13394343 86.67974733 21.13629532 79.15237617 C21.13909807 69.98015863 21.138345 60.80794964 21.13301457 51.63573308 C21.13038392 46.95455927 21.12936179 42.27339974 21.13266373 37.59222603 C21.13563974 33.30837253 21.134012 29.02454658 21.12868617 24.74069559 C21.12756758 23.18960482 21.12814087 21.63851172 21.13056196 20.08742244 C21.13359808 17.98099605 21.13048813 15.87466427 21.12584114 13.76824284 C21.12559761 12.01230465 21.12559761 12.01230465 21.12534916 10.22089297 C21.04889424 6.51688549 21.04889424 6.51688549 20 1 C13.73 1 7.46 1 1 1 C1 112.54 1 224.08 1 339 C0.67 339 0.34 339 0 339 C0 227.13 0 115.26 0 0 Z " fill="#B7AAAA" transform="translate(393,98)"/>
<path d="M0 0 C1.58294782 -0.05437607 3.16644256 -0.09296271 4.75 -0.125 C6.07257813 -0.15980469 6.07257813 -0.15980469 7.421875 -0.1953125 C10.17990095 0.01362886 11.69903523 0.48936661 14 2 C16.39093314 5.58639971 16.25215823 7.15306335 16.25726891 11.41471672 C16.26077498 12.07176926 16.26428105 12.7288218 16.26789337 13.40578502 C16.27724931 15.62297249 16.27227339 17.8398997 16.26742554 20.05709839 C16.27115969 21.65654882 16.27576027 23.25599743 16.28115618 24.85544312 C16.29343063 29.26284344 16.29312051 33.67016811 16.29076743 38.07758164 C16.29036038 42.82614716 16.30138765 47.57468805 16.31088257 52.32324219 C16.32751778 61.63105897 16.33299325 70.93885044 16.33410732 80.24668084 C16.33505659 87.80997683 16.33916077 95.37326443 16.34550858 102.93655777 C16.3631277 124.36447028 16.37234637 145.79236273 16.37084763 167.22028254 C16.37076772 168.376227 16.3706878 169.53217145 16.37060547 170.72314453 C16.37052371 171.88049501 16.37044195 173.03784548 16.37035771 174.23026718 C16.36954457 192.99259289 16.38868748 211.75483836 16.4168822 230.51714085 C16.44558214 249.76702695 16.4594241 269.01687388 16.45769465 288.26678193 C16.45702976 299.08023154 16.46256543 309.89359705 16.48405075 320.70702744 C16.50222455 329.91302622 16.50664125 339.11890278 16.4930319 348.3249117 C16.48648304 353.02425591 16.48645392 357.72336537 16.5037384 362.42268753 C16.5193898 366.72212309 16.51668737 371.02113619 16.49917014 375.32056095 C16.49608265 376.87842526 16.49979798 378.43632048 16.51089029 379.99414836 C16.52494716 382.10781488 16.51447835 384.21998632 16.49777794 386.333601 C16.49843004 388.09629163 16.49843004 388.09629163 16.49909532 389.89459217 C15.89574004 393.64871316 14.62954935 395.30519671 12 398 C9.57377512 399.21311244 8.0457641 399.12424658 5.33418846 399.12304783 C4.34440542 399.12503888 3.35462237 399.12702993 2.3348459 399.12908131 C1.23953322 399.12616847 0.14422053 399.12325563 -0.98428345 399.12025452 C-2.7203147 399.12153615 -2.7203147 399.12153615 -4.49141729 399.12284368 C-7.71355882 399.12421029 -10.93566052 399.12106874 -14.15779734 399.11606562 C-17.62882393 399.11175986 -21.09984856 399.11320764 -24.57087708 399.1139679 C-30.58789132 399.11449305 -36.60489475 399.11134713 -42.62190628 399.10573006 C-51.32156734 399.09761391 -60.02122315 399.09499972 -68.72088759 399.09374207 C-82.83443584 399.09155173 -96.94797832 399.08489213 -111.06152344 399.07543945 C-124.77408825 399.06626487 -138.48665149 399.05918426 -152.19921875 399.05493164 C-153.04401305 399.05466892 -153.88880735 399.05440619 -154.75920148 399.05413551 C-158.99715237 399.0528305 -163.23510327 399.05156679 -167.47305417 399.05032361 C-202.64870689 399.03995156 -237.82435292 399.02233373 -273 399 C-273 398.67 -273 398.34 -273 398 C-182.91 398 -92.82 398 0 398 C0.83162455 393.84187725 1.12526015 390.54618771 1.12584114 386.3575983 C1.12729458 385.70022605 1.12874802 385.04285379 1.13024551 384.36556116 C1.13389941 382.15937935 1.1304219 379.95326689 1.12698364 377.74708557 C1.1281357 376.15074835 1.1297238 374.55441139 1.13171089 372.95807499 C1.13589258 368.56853917 1.13381872 364.17902505 1.13072467 359.78948915 C1.12846608 355.05662855 1.13195249 350.32377172 1.13470459 345.59091187 C1.13915643 336.31779331 1.13818838 327.04468283 1.13529195 317.77156395 C1.13303549 310.23597805 1.13272645 302.70039442 1.13381577 295.16480827 C1.133969 294.09315326 1.13412223 293.02149825 1.13428011 291.91736884 C1.13459983 289.7404519 1.13492404 287.56353495 1.1352527 285.38661801 C1.13810581 264.96251569 1.13482318 244.53841786 1.12945233 224.11431628 C1.12498509 206.5836142 1.1257599 189.05291875 1.13037109 171.5222168 C1.13572093 151.17378774 1.13783046 130.82536261 1.13475883 110.47693294 C1.13444028 108.30762446 1.1341259 106.13831598 1.13381577 103.96900749 C1.13366149 102.90161603 1.13350721 101.83422457 1.13334826 100.73448791 C1.13248429 93.20711637 1.13394343 85.67974733 1.13629532 78.15237617 C1.13909807 68.98015863 1.138345 59.80794964 1.13301457 50.63573308 C1.13038392 45.95455927 1.12936179 41.27339974 1.13266373 36.59222603 C1.13563974 32.30837253 1.134012 28.02454658 1.12868617 23.74069559 C1.12756758 22.18960482 1.12814087 20.63851172 1.13056196 19.08742244 C1.13359808 16.98099605 1.13048813 14.87466427 1.12584114 12.76824284 C1.12567879 11.59761738 1.12551644 10.42699192 1.12534916 9.22089297 C1.00255404 6.06562704 0.59174694 3.098587 0 0 Z " fill="#D5E9FA" transform="translate(362,46)"/>
<path d="M0 0 C15.51 0 31.02 0 47 0 C47.04010881 24.66691774 47.04010881 24.66691774 47.04882812 35.14257812 C47.0548171 42.30412533 47.06191884 49.46565981 47.07543945 56.62719727 C47.08626653 62.39783429 47.09227645 68.16845768 47.09487724 73.93910408 C47.09673182 76.14602943 47.10035304 78.352954 47.10573006 80.55987358 C47.1129381 83.63946041 47.11399104 86.71899014 47.11352539 89.79858398 C47.11712067 90.72071182 47.12071594 91.64283966 47.12442017 92.59291077 C47.11405216 98.88594784 47.11405216 98.88594784 46 100 C44.5932478 100.09804851 43.18164864 100.12798186 41.77148438 100.12939453 C40.42503845 100.13412277 40.42503845 100.13412277 39.0513916 100.13894653 C37.58735901 100.13591019 37.58735901 100.13591019 36.09375 100.1328125 C34.6011969 100.13424759 34.6011969 100.13424759 33.07849121 100.13571167 C30.97013282 100.1363936 28.86177235 100.13453844 26.75341797 100.13037109 C23.51394973 100.12502303 20.27462015 100.13031567 17.03515625 100.13671875 C14.99218719 100.13605797 12.94921822 100.13477681 10.90625 100.1328125 C9.93022827 100.13483673 8.95420654 100.13686096 7.9486084 100.13894653 C7.05097778 100.13579437 6.15334717 100.13264221 5.22851562 100.12939453 C4.43433228 100.12859894 3.64014893 100.12780334 2.82189941 100.12698364 C1 100 1 100 0 99 C-0.09532328 95.92545239 -0.1255138 92.87340842 -0.11352539 89.79858398 C-0.11367142 88.83283447 -0.11381744 87.86708496 -0.1139679 86.87207031 C-0.11326834 83.66338901 -0.10547397 80.45476497 -0.09765625 77.24609375 C-0.09579222 75.02791882 -0.09436825 72.80974348 -0.09336853 70.59156799 C-0.08954216 64.74059929 -0.07971086 58.88965523 -0.06866455 53.03869629 C-0.05665902 46.02532714 -0.05204876 39.01194978 -0.04621124 31.9985733 C-0.03649916 21.33236504 -0.01734343 10.6662109 0 0 Z " fill="#518BD6" transform="translate(289,282)"/>
<path d="M0 0 C1.15322754 -0.00861557 2.30645508 -0.01723114 3.49462891 -0.02610779 C7.3124832 -0.04883849 11.12960768 -0.04201514 14.94750977 -0.03295898 C16.92812094 -0.03686933 18.9087325 -0.04078977 20.88933998 -0.04625839 C27.1165772 -0.06325653 33.34356937 -0.059693 39.57080078 -0.04296875 C45.99099297 -0.026049 52.41050518 -0.04187919 58.83062309 -0.07419163 C64.34671092 -0.10090031 69.86258723 -0.10816015 75.37873322 -0.09967655 C78.67157064 -0.09475063 81.96390884 -0.09904651 85.25671196 -0.11746407 C88.92945993 -0.13485575 92.60074864 -0.12040921 96.2734375 -0.09765625 C97.36191483 -0.10934845 98.45039215 -0.12104065 99.57185364 -0.13308716 C106.90473777 -0.04051717 106.90473777 -0.04051717 110.91175842 2.84632874 C112.70141602 5.53344727 112.70141602 5.53344727 112.76391602 9.15844727 C111.58301065 12.90955841 110.995352 13.60596832 107.70141602 15.53344727 C105.36193085 15.913764 105.36193085 15.913764 102.72961426 15.92112732 C101.72861191 15.93103195 100.72760956 15.94093658 99.6962738 15.95114136 C98.6042012 15.94663971 97.5121286 15.94213806 96.38696289 15.9375 C95.23212906 15.94436325 94.07729523 15.9512265 92.88746643 15.95829773 C89.06490839 15.97661986 85.2427586 15.97272066 81.42016602 15.96704102 C79.43771723 15.97044799 77.45526825 15.97386219 75.47282171 15.97839409 C69.24086918 15.99243785 63.00905374 15.99087894 56.77709961 15.97949219 C50.34902911 15.96800662 43.9213756 15.98209388 37.49336004 16.00888866 C31.97221358 16.03104104 26.45119807 16.03768427 20.93001032 16.03181225 C17.63335262 16.0284408 14.33702184 16.03257449 11.04039001 16.04806328 C7.36523164 16.06289799 3.69099806 16.05235064 0.01586914 16.03515625 C-1.07620346 16.04482422 -2.16827606 16.05449219 -3.29344177 16.06445312 C-4.29444412 16.05461899 -5.29544647 16.04478485 -6.32678223 16.03465271 C-7.1954467 16.03444343 -8.06411118 16.03423414 -8.95909882 16.03401852 C-12.11994436 15.35770373 -13.32348127 14.04455292 -15.29858398 11.53344727 C-15.82859234 7.82338875 -15.93905092 5.58974091 -13.97349548 2.34803772 C-9.63063257 -0.59804763 -5.12782028 -0.03068637 0 0 Z " fill="#010101" transform="translate(120.298583984375,351.466552734375)"/>
<path d="M0 0 C7.57753731 4.53378703 12.97881191 11.49385548 15.4375 20 C15.4375 21.65 15.4375 23.3 15.4375 25 C-3.7025 25 -22.8425 25 -42.5625 25 C-40.98370336 15.52722013 -38.48891494 8.34379277 -30.5 2.48828125 C-21.71142064 -3.14998014 -9.70693179 -4.46399024 0 0 Z " fill="#4F88D0" transform="translate(191.5625,242)"/>
<path d="M0 0 C0.6671553 -0.00700928 1.33431061 -0.01401855 2.02168274 -0.02124023 C4.22126205 -0.03880818 6.41954884 -0.0272034 8.61914062 -0.01367188 C10.15084072 -0.01636718 11.68253915 -0.02024992 13.2142334 -0.02526855 C16.42212233 -0.03116191 19.62956531 -0.02260644 22.83740234 -0.00390625 C26.94685105 0.01888389 31.05525484 0.00575984 35.16466522 -0.01819611 C38.32688249 -0.03265887 41.48885251 -0.02804605 44.65107727 -0.01768494 C46.1661237 -0.01501894 47.68119266 -0.018283 49.19621277 -0.02760315 C51.31500594 -0.03777748 53.43211347 -0.02225918 55.55078125 0 C57.35802673 0.00477356 57.35802673 0.00477356 59.20178223 0.00964355 C62.88004089 0.61750067 64.0666765 1.56275143 66.27539062 4.51757812 C66.77539062 7.51757812 66.77539062 7.51757812 66.27539062 10.51757812 C64.40829152 12.82033369 62.91891321 14.19581683 60.27539062 15.51757812 C58.20894908 15.63482353 56.13872805 15.68736398 54.0690918 15.71044922 C52.11147163 15.73454361 52.11147163 15.73454361 50.11430359 15.75912476 C48.6823288 15.77061156 47.25034673 15.78122021 45.81835938 15.79101562 C45.09828516 15.7963393 44.37821095 15.80166298 43.6363163 15.80714798 C39.82453094 15.83387489 36.01277827 15.85325069 32.20092773 15.86767578 C28.26637248 15.88431796 24.33265581 15.92909182 20.39841747 15.98004723 C17.37090611 16.01372685 14.34359358 16.02525387 11.31591225 16.03090286 C9.86582344 16.0376141 8.41574766 16.05283322 6.96584129 16.07679367 C4.93408239 16.10845222 2.9018738 16.10547978 0.86987305 16.10107422 C-0.86314812 16.1132045 -0.86314812 16.1132045 -2.63117981 16.12557983 C-6.68640196 15.32854148 -8.17764031 13.70271274 -10.72460938 10.51757812 C-11.28710938 7.45507812 -11.28710938 7.45507812 -10.72460938 4.51757812 C-7.55986338 0.30166471 -5.14125125 0.01357982 0 0 Z " fill="#060707" transform="translate(284.724609375,230.482421875)"/>
<path d="M0 0 C0.6671553 -0.00700928 1.33431061 -0.01401855 2.02168274 -0.02124023 C4.22126205 -0.03880818 6.41954884 -0.0272034 8.61914062 -0.01367188 C10.15084072 -0.01636718 11.68253915 -0.02024992 13.2142334 -0.02526855 C16.42212233 -0.03116191 19.62956531 -0.02260644 22.83740234 -0.00390625 C26.94685105 0.01888389 31.05525484 0.00575984 35.16466522 -0.01819611 C38.32688249 -0.03265887 41.48885251 -0.02804605 44.65107727 -0.01768494 C46.1661237 -0.01501894 47.68119266 -0.018283 49.19621277 -0.02760315 C51.31500594 -0.03777748 53.43211347 -0.02225918 55.55078125 0 C57.35802673 0.00477356 57.35802673 0.00477356 59.20178223 0.00964355 C62.88004089 0.61750067 64.0666765 1.56275143 66.27539062 4.51757812 C66.77539062 7.51757812 66.77539062 7.51757812 66.27539062 10.51757812 C64.40829152 12.82033369 62.91891321 14.19581683 60.27539062 15.51757812 C58.20894908 15.63482353 56.13872805 15.68736398 54.0690918 15.71044922 C52.11147163 15.73454361 52.11147163 15.73454361 50.11430359 15.75912476 C48.6823288 15.77061156 47.25034673 15.78122021 45.81835938 15.79101562 C45.09828516 15.7963393 44.37821095 15.80166298 43.6363163 15.80714798 C39.82453094 15.83387489 36.01277827 15.85325069 32.20092773 15.86767578 C28.26637248 15.88431796 24.33265581 15.92909182 20.39841747 15.98004723 C17.37090611 16.01372685 14.34359358 16.02525387 11.31591225 16.03090286 C9.86582344 16.0376141 8.41574766 16.05283322 6.96584129 16.07679367 C4.93408239 16.10845222 2.9018738 16.10547978 0.86987305 16.10107422 C-0.86314812 16.1132045 -0.86314812 16.1132045 -2.63117981 16.12557983 C-6.68640196 15.32854148 -8.17764031 13.70271274 -10.72460938 10.51757812 C-11.28710938 7.45507812 -11.28710938 7.45507812 -10.72460938 4.51757812 C-7.55986338 0.30166471 -5.14125125 0.01357982 0 0 Z " fill="#070808" transform="translate(284.724609375,200.482421875)"/>
<path d="M0 0 C0.6671553 -0.00700928 1.33431061 -0.01401855 2.02168274 -0.02124023 C4.22126205 -0.03880818 6.41954884 -0.0272034 8.61914062 -0.01367188 C10.15084072 -0.01636718 11.68253915 -0.02024992 13.2142334 -0.02526855 C16.42212233 -0.03116191 19.62956531 -0.02260644 22.83740234 -0.00390625 C26.94685105 0.01888389 31.05525484 0.00575984 35.16466522 -0.01819611 C38.32688249 -0.03265887 41.48885251 -0.02804605 44.65107727 -0.01768494 C46.1661237 -0.01501894 47.68119266 -0.018283 49.19621277 -0.02760315 C51.31500594 -0.03777748 53.43211347 -0.02225918 55.55078125 0 C57.35802673 0.00477356 57.35802673 0.00477356 59.20178223 0.00964355 C62.88004089 0.61750067 64.0666765 1.56275143 66.27539062 4.51757812 C66.77539062 7.51757812 66.77539062 7.51757812 66.27539062 10.51757812 C64.40829152 12.82033369 62.91891321 14.19581683 60.27539062 15.51757812 C58.20894908 15.63482353 56.13872805 15.68736398 54.0690918 15.71044922 C52.11147163 15.73454361 52.11147163 15.73454361 50.11430359 15.75912476 C48.6823288 15.77061156 47.25034673 15.78122021 45.81835938 15.79101562 C45.09828516 15.7963393 44.37821095 15.80166298 43.6363163 15.80714798 C39.82453094 15.83387489 36.01277827 15.85325069 32.20092773 15.86767578 C28.26637248 15.88431796 24.33265581 15.92909182 20.39841747 15.98004723 C17.37090611 16.01372685 14.34359358 16.02525387 11.31591225 16.03090286 C9.86582344 16.0376141 8.41574766 16.05283322 6.96584129 16.07679367 C4.93408239 16.10845222 2.9018738 16.10547978 0.86987305 16.10107422 C-0.86314812 16.1132045 -0.86314812 16.1132045 -2.63117981 16.12557983 C-6.68640196 15.32854148 -8.17764031 13.70271274 -10.72460938 10.51757812 C-11.28710938 7.45507812 -11.28710938 7.45507812 -10.72460938 4.51757812 C-7.55986338 0.30166471 -5.14125125 0.01357982 0 0 Z " fill="#070808" transform="translate(284.724609375,170.482421875)"/>
<path d="M0 0 C0.65740173 -0.00700928 1.31480347 -0.01401855 1.99212646 -0.02124023 C4.15924667 -0.03880619 6.32505466 -0.02720423 8.4921875 -0.01367188 C10.00146739 -0.01636724 11.51074558 -0.02025003 13.02001953 -0.02526855 C16.18083249 -0.03116164 19.34119284 -0.02260738 22.50195312 -0.00390625 C26.55087307 0.01888393 30.59873248 0.00575973 34.64761353 -0.01819611 C37.76350883 -0.03265965 40.87915324 -0.02804571 43.99505615 -0.01768494 C45.4877739 -0.01501915 46.98051454 -0.01828225 48.47320557 -0.02760315 C50.56087454 -0.03777883 52.64683324 -0.02225756 54.734375 0 C56.51497314 0.00477356 56.51497314 0.00477356 58.33154297 0.00964355 C61.99348428 0.62237227 63.17738388 1.5632566 65.3671875 4.51757812 C65.9296875 8.01757812 65.9296875 8.01757812 65.3671875 11.51757812 C62.71358037 14.25527178 61.03693163 15.40847188 57.24925232 16.0255127 C56.08217239 16.02869507 54.91509247 16.03187744 53.71264648 16.03515625 C52.7409552 16.04567017 52.7409552 16.04567017 51.74963379 16.05639648 C49.62040631 16.07392138 47.49252088 16.06237666 45.36328125 16.04882812 C43.87785081 16.05152434 42.39242209 16.05540785 40.90699768 16.0604248 C37.79923643 16.06631204 34.69193607 16.05778135 31.58422852 16.0390625 C27.60371264 16.01625269 23.6242744 16.02941255 19.64379787 16.05335236 C16.57851558 16.0678148 13.51348835 16.06320282 10.44819832 16.05284119 C8.98060032 16.05017613 7.51297905 16.05343595 6.04540825 16.0627594 C3.99376034 16.07293558 1.94385245 16.05741435 -0.10766602 16.03515625 C-1.27395035 16.03197388 -2.44023468 16.0287915 -3.64186096 16.0255127 C-7.27189393 15.40904693 -8.45840174 14.44603178 -10.6328125 11.51757812 C-11.18467751 7.65452306 -11.37453958 5.52067943 -9.01611328 2.33117676 C-5.86397372 -0.0674781 -3.93949714 0.0105613 0 0 Z " fill="#010101" transform="translate(115.6328125,321.482421875)"/>
<path d="M0 0 C1.16801147 -0.01260864 2.33602295 -0.02521729 3.53942871 -0.03820801 C4.79678833 -0.03011108 6.05414795 -0.02201416 7.34960938 -0.01367188 C8.64402954 -0.01749878 9.93844971 -0.02132568 11.27209473 -0.02526855 C14.00922783 -0.03115875 16.74583796 -0.02261726 19.48291016 -0.00390625 C22.98707964 0.01888443 26.49002371 0.00575858 29.99414825 -0.01819611 C33.34189958 -0.03614642 36.68932325 -0.02356948 40.03710938 -0.01367188 C41.29446899 -0.0217688 42.55182861 -0.02986572 43.84729004 -0.03820801 C45.59930725 -0.01929504 45.59930725 -0.01929504 47.38671875 0 C48.41390015 0.00318237 49.44108154 0.00636475 50.49938965 0.00964355 C53.91778726 0.65416539 55.10093256 1.78179765 57.19335938 4.51757812 C57.75585938 8.01757812 57.75585938 8.01757812 57.19335938 11.51757812 C54.97413478 14.30814696 53.10241741 15.38650548 49.5703125 15.89578247 C46.17801621 16.06579165 42.80868416 16.09796129 39.41210938 16.08398438 C38.16586792 16.09018295 36.91962646 16.09638153 35.63562012 16.10276794 C32.32962749 16.11168159 29.02437817 16.10056609 25.71844482 16.0836792 C23.69493006 16.08008092 21.67233133 16.09401409 19.64892578 16.11450195 C15.75705059 16.15133433 11.86662518 16.15401692 7.97460938 16.14648438 C6.76929565 16.15974258 5.56398193 16.17300079 4.32214355 16.18666077 C-4.97193687 16.08308898 -4.97193687 16.08308898 -8.0703125 13.16967773 C-10.20131003 9.9147528 -10.5373832 8.33367824 -9.80664062 4.51757812 C-6.81350399 0.66707467 -4.80564166 0.01488865 0 0 Z " fill="#010202" transform="translate(193.806640625,381.482421875)"/>
<path d="M0 0 C1.02569595 -0.00619858 2.05139191 -0.01239716 3.10816956 -0.01878357 C5.27596081 -0.02588304 7.44380657 -0.02270555 9.61157227 -0.01000977 C12.92631585 0.00384318 16.2382298 -0.03019937 19.55273438 -0.06835938 C21.66015694 -0.0693107 23.76758304 -0.06745104 25.875 -0.0625 C26.86471298 -0.07575821 27.85442596 -0.08901642 28.87413025 -0.10267639 C33.54576598 -0.03956228 35.80332603 0.05309537 39.66040039 2.87915039 C41.50390625 5.56640625 41.50390625 5.56640625 41.62890625 9.19140625 C40.50390625 12.56640625 40.50390625 12.56640625 38.58422852 14.25024414 C34.09535843 16.16825148 29.92826106 16.01466398 25.09375 16 C23.58706505 16.00786278 23.58706505 16.00786278 22.04994202 16.0158844 C19.93100915 16.02229583 17.81204064 16.02097901 15.69311523 16.01245117 C12.44906515 16.00392638 9.20676752 16.03273959 5.96289062 16.06445312 C3.90234428 16.06606487 1.84179481 16.06548811 -0.21875 16.0625 C-1.67354515 16.07935097 -1.67354515 16.07935097 -3.1577301 16.09654236 C-9.83201046 16.02732165 -9.83201046 16.02732165 -13.10717773 13.75415039 C-15.15920451 10.52191064 -15.03076627 8.30911391 -14.49609375 4.56640625 C-11.06089953 -0.88733809 -5.79426127 -0.02897822 0 0 Z " fill="#020202" transform="translate(119.49609375,381.43359375)"/>
<path d="M0 0 C9.9 0 19.8 0 30 0 C30 14.77777778 30 14.77777778 26 19 C21.63336724 23.12736521 17.09846917 22.54102847 11.3671875 22.421875 C6.58094096 21.82220606 5.02267577 20.6943815 2 17 C0 13 0 13 0 0 Z " fill="#F8D9C9" transform="translate(163,202)"/>
<path d="M0 0 C2.58203125 -0.37231445 2.58203125 -0.37231445 5.8125 -0.36328125 C7.54886719 -0.36231445 7.54886719 -0.36231445 9.3203125 -0.36132812 C10.53460938 -0.34521484 11.74890625 -0.32910156 13 -0.3125 C14.21429688 -0.31572266 15.42859375 -0.31894531 16.6796875 -0.32226562 C25.73318452 -0.26681548 25.73318452 -0.26681548 28 2 C28 4.64 28 7.28 28 10 C18.1 10 8.2 10 -2 10 C-2 3 -2 3 0 0 Z " fill="#8E8888" transform="translate(165,177)"/>
</svg>
